  <svg id="mic" xmlns="http://www.w3.org/2000/svg" width="49.757" height="74.635" viewBox="0 0 49.757 74.635">
    <path id="Path_1" data-name="Path 1" d="M24.439,49.757A12.476,12.476,0,0,1,12,37.318V12.439a12.439,12.439,0,1,1,24.878,0V37.318A12.476,12.476,0,0,1,24.439,49.757Zm0-43.537a6.238,6.238,0,0,0-6.22,6.22V37.318a6.22,6.22,0,0,0,12.439,0V12.439A6.238,6.238,0,0,0,24.439,6.22Z" transform="translate(0.439 0)" fill="#fefefe"/>
    <path id="Path_2" data-name="Path 2" d="M30.878,47.708A24.952,24.952,0,0,1,6,22.829V16.61A2.938,2.938,0,0,1,9.11,13.5a2.938,2.938,0,0,1,3.11,3.11v6.22a18.659,18.659,0,0,0,37.318,0V16.61a3.11,3.11,0,1,1,6.22,0v6.22A24.952,24.952,0,0,1,30.878,47.708Z" transform="translate(-6 14.488)" fill="#fefefe"/>
    <path id="Path_3" data-name="Path 3" d="M19.61,45.659a2.938,2.938,0,0,1-3.11-3.11V30.11A2.938,2.938,0,0,1,19.61,27a2.938,2.938,0,0,1,3.11,3.11V42.549A2.938,2.938,0,0,1,19.61,45.659Z" transform="translate(5.269 28.977)" fill="#fefefe"/>
    <path id="Path_4" data-name="Path 4" d="M38.488,39.22H13.61a3.11,3.11,0,1,1,0-6.22H38.488a3.11,3.11,0,1,1,0,6.22Z" transform="translate(-1.171 35.416)" fill="#fefefe"/>
  </svg>